<svg width="38" height="38" viewBox="0 0 38 38" fill="none" xmlns="http://www.w3.org/2000/svg">
<path d="M38 19C38 29.4934 29.4934 38 19 38C8.50659 38 -7.4367e-07 29.4934 -1.66103e-06 19C-2.5784e-06 8.50659 8.50659 2.5784e-06 19 1.66103e-06C29.4934 7.4367e-07 38 8.50659 38 19Z" fill="#FCFCFC" fill-opacity="0.3"/>
<path fill-rule="evenodd" clip-rule="evenodd" d="M19.8647 24.1352C20.1244 24.3949 20.5455 24.3949 20.8052 24.1352C21.0649 23.8755 21.0649 23.4545 20.8052 23.1948L16.6039 18.9935L20.8052 14.7922C21.0649 14.5325 21.0649 14.1114 20.8052 13.8517C20.5455 13.592 20.1245 13.592 19.8648 13.8517L15.1961 18.5205C15.1951 18.5214 15.1942 18.5223 15.1932 18.5233C14.9335 18.783 14.9335 19.204 15.1932 19.4637L19.8647 24.1352Z" fill="#FCFCFC"/>
<path d="M19 2C28.3888 2 36 9.61116 36 19L40 19C40 7.40202 30.598 -2 19 -2L19 2ZM2 19C2 9.61116 9.61116 2 19 2L19 -2C7.40202 -2 -2 7.40202 -2 19L2 19ZM19 36C9.61116 36 2 28.3888 2 19L-2 19C-2 30.598 7.40202 40 19 40L19 36ZM19 40C30.598 40 40 30.598 40 19L36 19C36 28.3888 28.3888 36 19 36L19 40Z" fill="#FCFCFC"/>
</svg>
