<svg width="38" height="38" viewBox="0 0 38 38" fill="none" xmlns="http://www.w3.org/2000/svg">
<path d="M-6.10352e-05 19C-6.10352e-05 8.50659 8.50653 0 18.9999 0C29.4933 0 37.9999 8.50659 37.9999 19C37.9999 29.4934 29.4933 38 18.9999 38C8.50653 38 -6.10352e-05 29.4934 -6.10352e-05 19Z" fill="#FCFCFC" fill-opacity="0.3"/>
<path fill-rule="evenodd" clip-rule="evenodd" d="M18.1352 13.8648C17.8755 13.6051 17.4545 13.6051 17.1948 13.8648C16.9351 14.1245 16.9351 14.5455 17.1948 14.8052L21.396 19.0065L17.1947 23.2078C16.935 23.4675 16.935 23.8886 17.1947 24.1483C17.4544 24.408 17.8755 24.408 18.1352 24.1483L22.8039 19.4795C22.8048 19.4786 22.8058 19.4777 22.8067 19.4767C23.0664 19.217 23.0664 18.796 22.8067 18.5363L18.1352 13.8648Z" fill="#FCFCFC"/>
<path d="M18.9999 36C9.6111 36 1.99994 28.3888 1.99994 19H-2.00006C-2.00006 30.598 7.40196 40 18.9999 40V36ZM35.9999 19C35.9999 28.3888 28.3888 36 18.9999 36V40C30.5979 40 39.9999 30.598 39.9999 19H35.9999ZM18.9999 2C28.3888 2 35.9999 9.61116 35.9999 19H39.9999C39.9999 7.40202 30.5979 -2 18.9999 -2V2ZM18.9999 -2C7.40196 -2 -2.00006 7.40202 -2.00006 19H1.99994C1.99994 9.61116 9.6111 2 18.9999 2V-2Z" fill="#FCFCFC"/>
</svg>
